<?xml version="1.0" encoding="UTF-8"?>
<svg width="4000px" height="4000px" viewBox="0 0 4000 4000" version="1.1" xmlns="http://www.w3.org/2000/svg" xmlns:xlink="http://www.w3.org/1999/xlink">
    <title>vecteezy_user-avatar-people-icon-solid-style-vector-icon-design_6801517-0</title>
    <g id="vecteezy_user-avatar-people-icon-solid-style-vector-icon-design_6801517-0" stroke="none" stroke-width="1" fill="none" fill-rule="evenodd">
        <path d="M799,3599.55049 L799,3333.12859 C799,3112.14097 978.088898,2933 1199.0016,2933 C1663.7512,2933 2334.2512,2933 2799.0008,2933 C3019.9135,2933 3199,3112.14097 3199,3333.12141 L3199,3599.55049 C2864.54606,3850.99208 2449.03262,4000 1999,4000 C1548.96977,4000 1133.45633,3850.99208 799,3599.55049 Z M533.331418,3359 L533.331418,3333.17528 C533.331418,2965.00239 831.808543,2666.54214 1199.99928,2666.54214 C1664.74953,2666.54214 2335.25047,2666.54214 2800.00072,2666.54214 C3168.19146,2666.54214 3466.66858,2965.00239 3466.66858,3333.17528 L3466.66858,3359 C3797.62989,3002.04089 4000,2524.41638 4000,1999.90181 C4000,896.125321 3103.82883,0 1999.9988,0 C896.16878,0 0,896.125321 0,1999.90181 C0,2524.41638 202.36772,3002.04089 533.331418,3359 Z M2000.5,800 C1823.73463,800 1654.20742,870.237876 1529.21264,995.261631 C1404.22025,1120.28778 1334,1289.85753 1334,1466.66727 C1334,1554.48317 1334,1645.51683 1334,1733.33273 C1334,1910.14247 1404.22025,2079.71222 1529.21264,2204.73837 C1654.20742,2329.76212 1823.73463,2400 2000.5,2400 C2177.26777,2400 2346.79497,2329.76212 2471.78736,2204.73598 C2596.77975,2079.71222 2667,1910.14247 2667,1733.33034 C2667,1645.51683 2667,1554.48317 2667,1466.66727 C2667,1289.85753 2596.77975,1120.28778 2471.78736,995.261631 C2346.79497,870.237876 2177.26777,800 2000.5,800 Z M2000.4988,1067 C1894.54573,1067 1792.93025,1109.15781 1718.00988,1184.19551 C1643.08951,1259.2332 1601,1361.0078 1601,1467.1268 L1601,1733.8756 C1601,1839.99459 1643.08951,1941.76919 1718.00988,2016.80689 C1792.93025,2091.84458 1894.54573,2134 2000.4988,2134 C2106.45427,2134 2208.06736,2091.84458 2282.98773,2016.80689 C2357.91049,1941.76919 2400,1839.99459 2400,1733.8756 L2400,1467.1268 C2400,1361.0078 2357.91049,1259.2332 2282.98773,1184.19551 C2208.06736,1109.15781 2106.45427,1067 2000.4988,1067 L2000.4988,1067 Z" id="Fill-3" fill="#000000"></path>
    </g>
</svg>